<?xml version="1.0" encoding="UTF-8"?>
<!DOCTYPE svg PUBLIC "-//W3C//DTD SVG 1.1//EN" "http://www.w3.org/Graphics/SVG/1.1/DTD/svg11.dtd">
<svg xmlns="http://www.w3.org/2000/svg" version="1.1" width="600px" height="600px" style="shape-rendering:geometricPrecision; text-rendering:geometricPrecision; image-rendering:optimizeQuality; fill-rule:evenodd; clip-rule:evenodd" xmlns:xlink="http://www.w3.org/1999/xlink">
<g><path style="opacity:0.963" fill="#b1892d" d="M 323.5,54.5 C 324.552,54.3505 325.552,54.5172 326.5,55C 335.623,66.7368 343.623,79.2368 350.5,92.5C 380.228,79.4541 411.228,74.6208 443.5,78C 452.871,78.6855 457.038,83.5188 456,92.5C 452.95,96.1303 449.117,97.297 444.5,96C 440.109,93.5946 436.109,90.5946 432.5,87C 404.687,83.0282 378.354,87.6949 353.5,101C 375.596,157.626 362.263,203.959 313.5,240C 309.049,243.728 304.049,246.062 298.5,247C 343.406,209.775 358.073,162.942 342.5,106.5C 316.035,121.371 299.201,143.704 292,173.5C 289.165,186.344 287.499,199.344 287,212.5C 286.5,226.829 286.333,241.163 286.5,255.5C 300.384,250.279 314.717,246.779 329.5,245C 350.973,241.826 369.473,247.659 385,262.5C 394.91,276.05 397.91,291.05 394,307.5C 390.235,325.696 382.235,341.696 370,355.5C 353.551,371.958 335.385,386.125 315.5,398C 282.893,417.138 249.56,434.971 215.5,451.5C 212.754,450.904 211.92,449.237 213,446.5C 231.578,431.362 243.578,412.029 249,388.5C 256.341,354.721 258.007,320.721 254,286.5C 225.769,307.585 208.102,335.585 201,370.5C 199,371.833 197,371.833 195,370.5C 198.925,328.979 218.425,296.979 253.5,274.5C 254.093,250.623 256.593,226.957 261,203.5C 272.337,156.202 298.837,120.369 340.5,96C 335.782,81.7362 330.115,67.9029 323.5,54.5 Z M 248.5,423.5 C 271.454,392.829 284.287,358.162 287,319.5C 288.486,302.815 288.819,286.149 288,269.5C 306.758,260.588 325.925,259.421 345.5,266C 356.092,273.514 361.425,283.847 361.5,297C 358.092,322.314 347.592,344.148 330,362.5C 305.199,386.154 278.032,406.487 248.5,423.5 Z"/></g>
<g><path style="opacity:0.769" fill="#000000" d="M 52.5,462.5 C 60.5,462.5 68.5,462.5 76.5,462.5C 76.8134,465.247 76.48,467.914 75.5,470.5C 74.1056,466.084 71.1056,464.418 66.5,465.5C 66.3336,473.174 66.5003,480.841 67,488.5C 68.2051,489.071 69.3717,489.738 70.5,490.5C 66.1667,491.833 61.8333,491.833 57.5,490.5C 58.6888,489.571 60.0222,489.238 61.5,489.5C 61.5,481.5 61.5,473.5 61.5,465.5C 57.3174,464.846 54.484,466.512 53,470.5C 52.5026,467.854 52.3359,465.187 52.5,462.5 Z"/></g>
<g><path style="opacity:0.775" fill="#000000" d="M 94.5,462.5 C 98.8839,462.174 103.217,462.508 107.5,463.5C 106.372,464.262 105.205,464.929 104,465.5C 103.502,468.817 103.335,472.15 103.5,475.5C 107.5,475.5 111.5,475.5 115.5,475.5C 115.665,472.15 115.498,468.817 115,465.5C 113.795,464.929 112.628,464.262 111.5,463.5C 115.833,462.167 120.167,462.167 124.5,463.5C 123.372,464.262 122.205,464.929 121,465.5C 120.5,473.493 120.334,481.493 120.5,489.5C 121.978,489.238 123.311,489.571 124.5,490.5C 120.167,491.833 115.833,491.833 111.5,490.5C 112.628,489.738 113.795,489.071 115,488.5C 115.498,485.183 115.665,481.85 115.5,478.5C 111.5,478.5 107.5,478.5 103.5,478.5C 103.5,482.167 103.5,485.833 103.5,489.5C 104.978,489.238 106.311,489.571 107.5,490.5C 103.167,491.833 98.8333,491.833 94.5,490.5C 95.6283,489.738 96.7949,489.071 98,488.5C 98.6667,480.833 98.6667,473.167 98,465.5C 96.2714,465.026 95.1047,464.026 94.5,462.5 Z"/></g>
<g><path style="opacity:0.758" fill="#000000" d="M 141.5,462.5 C 149.167,462.5 156.833,462.5 164.5,462.5C 164.808,464.924 164.474,467.257 163.5,469.5C 162.738,468.372 162.071,467.205 161.5,466C 157.848,465.501 154.182,465.335 150.5,465.5C 150.5,468.833 150.5,472.167 150.5,475.5C 155.158,476.486 158.824,475.152 161.5,471.5C 162.833,474.833 162.833,478.167 161.5,481.5C 160.155,480.653 159.155,479.487 158.5,478C 155.854,477.503 153.187,477.336 150.5,477.5C 150.207,481.437 150.54,485.27 151.5,489C 157.62,490.771 162.286,488.938 165.5,483.5C 166.643,485.959 166.31,488.293 164.5,490.5C 156.833,491.833 149.167,491.833 141.5,490.5C 142.689,489.571 144.022,489.238 145.5,489.5C 145.5,481.167 145.5,472.833 145.5,464.5C 143.517,464.843 142.183,464.176 141.5,462.5 Z"/></g>
<g><path style="opacity:0.789" fill="#000000" d="M 211.5,462.5 C 217.509,462.334 223.509,462.501 229.5,463C 235.653,464.465 237.82,468.298 236,474.5C 235.167,475.333 234.333,476.167 233.5,477C 240.072,481.945 239.739,486.612 232.5,491C 225.476,491.831 218.476,491.664 211.5,490.5C 212.689,489.571 214.022,489.238 215.5,489.5C 215.666,481.493 215.5,473.493 215,465.5C 213.271,465.026 212.105,464.026 211.5,462.5 Z M 220.5,465.5 C 223.187,465.336 225.854,465.503 228.5,466C 232.5,469 232.5,472 228.5,475C 225.854,475.497 223.187,475.664 220.5,475.5C 220.5,472.167 220.5,468.833 220.5,465.5 Z M 223.5,477.5 C 227.711,477.767 230.711,479.767 232.5,483.5C 230.319,488.449 226.652,490.116 221.5,488.5C 220.513,485.232 220.18,481.898 220.5,478.5C 221.791,478.737 222.791,478.404 223.5,477.5 Z"/></g>
<g><path style="opacity:0.771" fill="#000000" d="M 257.5,462.5 C 264.833,462.5 272.167,462.5 279.5,462.5C 279.808,464.924 279.474,467.257 278.5,469.5C 277.738,468.372 277.071,467.205 276.5,466C 273.183,465.502 269.85,465.335 266.5,465.5C 266.5,468.833 266.5,472.167 266.5,475.5C 270.849,476.423 274.183,475.09 276.5,471.5C 277.833,474.833 277.833,478.167 276.5,481.5C 274.183,477.91 270.849,476.577 266.5,477.5C 263.416,488.539 267.083,492.039 277.5,488C 278.39,485.419 280.057,484.086 282.5,484C 281.475,486.071 280.642,488.238 280,490.5C 272.558,491.813 265.058,491.813 257.5,490.5C 258.934,489.77 260.1,488.77 261,487.5C 261.667,480.5 261.667,473.5 261,466.5C 259.612,465.264 258.446,463.931 257.5,462.5 Z"/></g>
<g><path style="opacity:0.744" fill="#000000" d="M 299.5,462.5 C 304.214,462.173 308.88,462.507 313.5,463.5C 311.807,464.228 310.307,465.228 309,466.5C 308.188,473.747 308.354,480.914 309.5,488C 315.987,490.067 320.82,488.234 324,482.5C 324.46,485.304 323.96,487.971 322.5,490.5C 314.833,491.833 307.167,491.833 299.5,490.5C 300.689,489.571 302.022,489.238 303.5,489.5C 303.666,481.493 303.5,473.493 303,465.5C 301.271,465.026 300.105,464.026 299.5,462.5 Z"/></g>
<g><path style="opacity:0.772" fill="#000000" d="M 342.5,462.5 C 347.214,462.173 351.88,462.507 356.5,463.5C 355.009,464.244 353.509,464.91 352,465.5C 351.5,473.159 351.334,480.826 351.5,488.5C 355.182,488.665 358.848,488.499 362.5,488C 363.956,486.255 365.289,484.422 366.5,482.5C 366.833,483 367.167,483.5 367.5,484C 366.521,486.433 365.855,488.933 365.5,491.5C 357.804,491.831 350.138,491.497 342.5,490.5C 343.628,489.738 344.795,489.071 346,488.5C 346.667,480.833 346.667,473.167 346,465.5C 344.271,465.026 343.105,464.026 342.5,462.5 Z"/></g>
<g><path style="opacity:0.764" fill="#000000" d="M 385.5,462.5 C 392.833,462.5 400.167,462.5 407.5,462.5C 407.838,465.011 407.838,467.345 407.5,469.5C 406.155,468.653 405.155,467.487 404.5,466C 401.183,465.502 397.85,465.335 394.5,465.5C 394.5,468.833 394.5,472.167 394.5,475.5C 398.849,476.423 402.183,475.09 404.5,471.5C 405.833,474.833 405.833,478.167 404.5,481.5C 402.183,477.91 398.849,476.577 394.5,477.5C 391.416,488.539 395.083,492.039 405.5,488C 406.305,486.028 407.639,484.528 409.5,483.5C 410.023,485.836 409.523,488.17 408,490.5C 400.558,491.813 393.058,491.813 385.5,490.5C 386.628,489.738 387.795,489.071 389,488.5C 389.667,481.167 389.667,473.833 389,466.5C 387.612,465.264 386.446,463.931 385.5,462.5 Z"/></g>
<g><path style="opacity:0.753" fill="#000000" d="M 427.5,462.5 C 431.555,462.176 435.555,462.509 439.5,463.5C 438.5,464.333 437.5,465.167 436.5,466C 439.191,471.734 441.691,477.568 444,483.5C 446.589,477.909 449.089,472.243 451.5,466.5C 450.737,465.281 449.737,464.281 448.5,463.5C 451.833,462.167 455.167,462.167 458.5,463.5C 457.24,464.382 456.074,465.382 455,466.5C 451.256,475.243 447.422,483.909 443.5,492.5C 438.681,484.243 434.514,475.577 431,466.5C 429.373,465.468 428.207,464.134 427.5,462.5 Z"/></g>
<g><path style="opacity:0.737" fill="#000000" d="M 474.5,462.5 C 478.884,462.174 483.217,462.508 487.5,463.5C 486.372,464.262 485.205,464.929 484,465.5C 483.333,471.5 483.333,477.5 484,483.5C 485.953,489.532 489.787,491.032 495.5,488C 496.701,487.097 497.535,485.931 498,484.5C 498.667,478.167 498.667,471.833 498,465.5C 496.795,464.929 495.628,464.262 494.5,463.5C 498.167,462.167 501.833,462.167 505.5,463.5C 504.372,464.262 503.205,464.929 502,465.5C 501.667,472.167 501.333,478.833 501,485.5C 499.008,490.336 495.341,492.669 490,492.5C 484.113,492.736 480.446,490.069 479,484.5C 478.667,478.167 478.333,471.833 478,465.5C 476.271,465.026 475.105,464.026 474.5,462.5 Z"/></g>
<g><path style="opacity:0.774" fill="#000000" d="M 522.5,462.5 C 530.167,462.5 537.833,462.5 545.5,462.5C 545.808,464.924 545.474,467.257 544.5,469.5C 543.585,468.672 542.919,467.672 542.5,466.5C 538.893,465.511 535.226,465.177 531.5,465.5C 531.5,468.833 531.5,472.167 531.5,475.5C 534.187,475.664 536.854,475.497 539.5,475C 541.952,470.306 542.952,470.806 542.5,476.5C 542.333,478.167 542.167,479.833 542,481.5C 539.454,477.95 535.954,476.617 531.5,477.5C 531.207,481.437 531.54,485.27 532.5,489C 538.62,490.771 543.286,488.938 546.5,483.5C 547.372,485.466 547.205,487.466 546,489.5C 542.26,490.794 538.26,491.461 534,491.5C 530.167,491.167 526.333,490.833 522.5,490.5C 523.689,489.571 525.022,489.238 526.5,489.5C 526.666,481.493 526.5,473.493 526,465.5C 524.271,465.026 523.105,464.026 522.5,462.5 Z"/></g>
<g><path style="opacity:0.75" fill="#000000" d="M 52.5,504.5 C 217.5,504.5 382.5,504.5 547.5,504.5C 547.5,505.5 547.5,506.5 547.5,507.5C 382.5,507.5 217.5,507.5 52.5,507.5C 52.5,506.5 52.5,505.5 52.5,504.5 Z"/></g>
<g><path style="opacity:0.8" fill="#000000" d="M 154.5,523.5 C 155.552,523.351 156.552,523.517 157.5,524C 159.955,527.078 162.289,530.244 164.5,533.5C 167.144,530.891 169.311,527.891 171,524.5C 172.011,523.663 173.178,523.33 174.5,523.5C 174.5,530.5 174.5,537.5 174.5,544.5C 173.5,544.5 172.5,544.5 171.5,544.5C 171.666,539.821 171.499,535.155 171,530.5C 169.311,533.891 167.144,536.891 164.5,539.5C 162.333,536.5 160.167,533.5 158,530.5C 157.501,535.155 157.334,539.821 157.5,544.5C 156.5,544.5 155.5,544.5 154.5,544.5C 154.5,537.5 154.5,530.5 154.5,523.5 Z"/></g>
<g><path style="opacity:0.736" fill="#000000" d="M 221.5,523.5 C 222.978,523.238 224.311,523.571 225.5,524.5C 228.371,531.075 231.371,537.575 234.5,544C 230.93,545.105 228.93,543.771 228.5,540C 225.167,539.333 221.833,539.333 218.5,540C 217.707,541.085 217.04,542.252 216.5,543.5C 215.277,544.614 213.944,544.781 212.5,544C 215.916,537.336 218.916,530.503 221.5,523.5 Z M 222.5,529.5 C 223.376,529.369 224.043,529.702 224.5,530.5C 227.586,535.788 225.919,537.621 219.5,536C 220.914,534.007 221.914,531.84 222.5,529.5 Z"/></g>
<g><path style="opacity:0.665" fill="#000000" d="M 271.5,523.5 C 272.873,523.343 274.207,523.51 275.5,524C 278.879,528.59 282.379,533.09 286,537.5C 286.499,532.845 286.666,528.179 286.5,523.5C 287.833,523.5 289.167,523.5 290.5,523.5C 290.5,530.5 290.5,537.5 290.5,544.5C 289.127,544.657 287.793,544.49 286.5,544C 283.121,539.41 279.621,534.91 276,530.5C 275.501,535.155 275.334,539.821 275.5,544.5C 274.167,544.5 272.833,544.5 271.5,544.5C 271.5,537.5 271.5,530.5 271.5,523.5 Z"/></g>
<g><path style="opacity:0.611" fill="#000000" d="M 329.5,523.5 C 330.833,523.5 332.167,523.5 333.5,523.5C 333.5,530.5 333.5,537.5 333.5,544.5C 332.167,544.5 330.833,544.5 329.5,544.5C 329.5,537.5 329.5,530.5 329.5,523.5 Z"/></g>
<g><path style="opacity:0.655" fill="#000000" d="M 372.5,523.5 C 373.833,523.5 375.167,523.5 376.5,523.5C 376.5,529.5 376.5,535.5 376.5,541.5C 380.167,541.5 383.833,541.5 387.5,541.5C 387.5,542.5 387.5,543.5 387.5,544.5C 382.5,544.5 377.5,544.5 372.5,544.5C 372.5,537.5 372.5,530.5 372.5,523.5 Z"/></g>
<g><path style="opacity:0.74" fill="#000000" d="M 432.5,523.5 C 433.978,523.238 435.311,523.571 436.5,524.5C 439.371,531.075 442.371,537.575 445.5,544C 444.056,544.781 442.723,544.614 441.5,543.5C 440.471,540.07 438.138,538.737 434.5,539.5C 430.862,538.737 428.529,540.07 427.5,543.5C 426.277,544.614 424.944,544.781 423.5,544C 426.916,537.336 429.916,530.503 432.5,523.5 Z M 433.5,529.5 C 436.083,530.985 437.416,533.318 437.5,536.5C 435.5,536.5 433.5,536.5 431.5,536.5C 431.878,534.079 432.545,531.746 433.5,529.5 Z"/></g>
</svg>
